<svg width="27" height="27" viewBox="0 0 27 27" fill="none" xmlns="http://www.w3.org/2000/svg">
<path d="M12.9399 2.73154L4.42861 4.42959L2.73057 12.9409C2.70396 13.0768 2.71121 13.2172 2.75167 13.3496C2.79214 13.482 2.86458 13.6025 2.9626 13.7003L13.9735 24.7112C14.0511 24.7906 14.1438 24.8537 14.2462 24.8968C14.3485 24.9399 14.4584 24.9621 14.5694 24.9621C14.6805 24.9621 14.7904 24.9399 14.8927 24.8968C14.995 24.8537 15.0877 24.7906 15.1653 24.7112L24.7103 15.1663C24.7897 15.0887 24.8528 14.996 24.8958 14.8937C24.9389 14.7914 24.9611 14.6814 24.9611 14.5704C24.9611 14.4594 24.9389 14.3495 24.8958 14.2471C24.8528 14.1448 24.7897 14.0521 24.7103 13.9745L13.6993 2.96357C13.6015 2.86555 13.4811 2.79311 13.3486 2.75265C13.2162 2.71218 13.0758 2.70493 12.9399 2.73154V2.73154Z" stroke="#008080" stroke-width="1.5" stroke-linecap="round" stroke-linejoin="round"/>
<path d="M8.85938 10.125C9.55836 10.125 10.125 9.55836 10.125 8.85938C10.125 8.16039 9.55836 7.59375 8.85938 7.59375C8.16039 7.59375 7.59375 8.16039 7.59375 8.85938C7.59375 9.55836 8.16039 10.125 8.85938 10.125Z" fill="#008080"/>
</svg>
