<svg width="27" height="27" viewBox="0 0 27 27" fill="none" xmlns="http://www.w3.org/2000/svg">
<path d="M13.9649 20.1127L19.2805 23.4877C19.9661 23.9201 20.8098 23.2767 20.6094 22.4857L19.0696 16.4318C19.0279 16.264 19.0346 16.0879 19.0887 15.9236C19.1428 15.7594 19.2422 15.6139 19.3754 15.5037L24.1426 11.5275C24.7649 11.0107 24.4485 9.96658 23.6364 9.91384L17.4137 9.51306C17.2439 9.50318 17.0807 9.44406 16.944 9.34292C16.8072 9.24178 16.7029 9.10299 16.6438 8.94353L14.3235 3.10056C14.2621 2.93171 14.1502 2.78585 14.003 2.68278C13.8558 2.5797 13.6805 2.52441 13.5008 2.52441C13.3211 2.52441 13.1458 2.5797 12.9986 2.68278C12.8515 2.78585 12.7396 2.93171 12.6782 3.10056L10.3578 8.94353C10.2987 9.10299 10.1944 9.24178 10.0577 9.34292C9.92095 9.44406 9.75771 9.50318 9.58793 9.51306L3.36527 9.91384C2.55316 9.96658 2.23676 11.0107 2.85902 11.5275L7.62621 15.5037C7.75945 15.6139 7.85886 15.7594 7.91297 15.9236C7.96709 16.0879 7.97371 16.264 7.93207 16.4318L6.50824 22.0428C6.26566 22.992 7.27816 23.7619 8.09027 23.2451L13.0368 20.1127C13.1755 20.0245 13.3364 19.9776 13.5008 19.9776C13.6652 19.9776 13.8262 20.0245 13.9649 20.1127V20.1127Z" stroke="#008080" stroke-width="1.5" stroke-linecap="round" stroke-linejoin="round"/>
</svg>
